<svg width="112" height="14" viewBox="0 0 132 38" fill="none" xmlns="http://www.w3.org/2000/svg">
  <path
    d="M3.54 30C3.32667 30 3.13467 29.9253 2.964 29.776C2.81467 29.6267 2.74 29.4347 2.74 29.2V8.4C2.74 8.16533 2.81467 7.97333 2.964 7.824C3.13467 7.67467 3.32667 7.6 3.54 7.6H6.996C7.33733 7.6 7.59333 7.696 7.764 7.888C7.956 8.05867 8.07333 8.19733 8.116 8.304L13.748 18.416L19.38 8.304C19.444 8.19733 19.5507 8.05867 19.7 7.888C19.8707 7.696 20.1373 7.6 20.5 7.6H23.924C24.1587 7.6 24.3507 7.67467 24.5 7.824C24.6707 7.97333 24.756 8.16533 24.756 8.4V29.2C24.756 29.4347 24.6707 29.6267 24.5 29.776C24.3507 29.9253 24.1587 30 23.924 30H20.116C19.8813 30 19.6787 29.9253 19.508 29.776C19.3587 29.6267 19.284 29.4347 19.284 29.2V17.2L15.668 23.888C15.5827 24.08 15.4547 24.2507 15.284 24.4C15.1133 24.5493 14.8787 24.624 14.58 24.624H12.916C12.6173 24.624 12.3827 24.5493 12.212 24.4C12.0413 24.2507 11.9027 24.08 11.796 23.888L8.18 17.2V29.2C8.18 29.4347 8.10533 29.6267 7.956 29.776C7.80667 29.9253 7.61467 30 7.38 30H3.54ZM31.9608 36.08C31.7688 36.08 31.6088 36.016 31.4808 35.888C31.3528 35.76 31.2888 35.6 31.2888 35.408C31.2888 35.3653 31.2888 35.3013 31.2888 35.216C31.3101 35.152 31.3421 35.0773 31.3848 34.992L33.8808 28.976L27.7368 14.448C27.6728 14.2987 27.6408 14.1707 27.6408 14.064C27.6834 13.872 27.7688 13.712 27.8968 13.584C28.0248 13.4347 28.1848 13.36 28.3768 13.36H32.0248C32.3021 13.36 32.5048 13.4347 32.6328 13.584C32.7821 13.712 32.8781 13.8613 32.9208 14.032L36.6008 23.344L40.3448 14.032C40.4301 13.8613 40.5368 13.712 40.6648 13.584C40.8141 13.4347 41.0274 13.36 41.3048 13.36H44.8888C45.0808 13.36 45.2408 13.4347 45.3688 13.584C45.5181 13.712 45.5928 13.8613 45.5928 14.032C45.5928 14.1387 45.5608 14.2773 45.4968 14.448L36.4408 35.408C36.3768 35.5787 36.2701 35.728 36.1208 35.856C35.9714 36.0053 35.7581 36.08 35.4808 36.08H31.9608Z"
    fill="#2662F0" />
  <path
    d="M49.1025 30C48.8892 30 48.6972 29.9253 48.5265 29.776C48.3772 29.6267 48.3025 29.4347 48.3025 29.2V8.4C48.3025 8.16533 48.3772 7.97333 48.5265 7.824C48.6972 7.67467 48.8892 7.6 49.1025 7.6H52.5585C52.8998 7.6 53.1558 7.696 53.3265 7.888C53.5185 8.05867 53.6358 8.19733 53.6785 8.304L59.3105 18.416L64.9425 8.304C65.0065 8.19733 65.1132 8.05867 65.2625 7.888C65.4332 7.696 65.6998 7.6 66.0625 7.6H69.4865C69.7212 7.6 69.9132 7.67467 70.0625 7.824C70.2332 7.97333 70.3185 8.16533 70.3185 8.4V29.2C70.3185 29.4347 70.2332 29.6267 70.0625 29.776C69.9132 29.9253 69.7212 30 69.4865 30H65.6785C65.4438 30 65.2412 29.9253 65.0705 29.776C64.9212 29.6267 64.8465 29.4347 64.8465 29.2V17.2L61.2305 23.888C61.1452 24.08 61.0172 24.2507 60.8465 24.4C60.6758 24.5493 60.4412 24.624 60.1425 24.624H58.4785C58.1798 24.624 57.9452 24.5493 57.7745 24.4C57.6038 24.2507 57.4652 24.08 57.3585 23.888L53.7425 17.2V29.2C53.7425 29.4347 53.6678 29.6267 53.5185 29.776C53.3692 29.9253 53.1772 30 52.9425 30H49.1025ZM82.0993 30.32C79.5819 30.32 77.5766 29.6373 76.0833 28.272C74.5899 26.9067 73.8113 24.88 73.7473 22.192C73.7473 22.0427 73.7473 21.8507 73.7473 21.616C73.7473 21.3813 73.7473 21.2 73.7473 21.072C73.8113 19.3867 74.1846 17.9467 74.8673 16.752C75.5713 15.536 76.5313 14.6187 77.7473 14C78.9846 13.36 80.4246 13.04 82.0673 13.04C83.9446 13.04 85.4913 13.4133 86.7073 14.16C87.9446 14.9067 88.8726 15.92 89.4913 17.2C90.1099 18.48 90.4193 19.9413 90.4193 21.584V22.352C90.4193 22.5867 90.3339 22.7787 90.1632 22.928C90.0139 23.0773 89.8326 23.152 89.6193 23.152H79.3793C79.3793 23.1733 79.3793 23.2053 79.3793 23.248C79.3793 23.2907 79.3793 23.3333 79.3793 23.376C79.4006 23.9947 79.5073 24.56 79.6993 25.072C79.8913 25.584 80.1899 25.9893 80.5953 26.288C81.0006 26.5867 81.4913 26.736 82.0673 26.736C82.4939 26.736 82.8459 26.672 83.1233 26.544C83.4219 26.3947 83.6673 26.2347 83.8593 26.064C84.0513 25.872 84.2006 25.712 84.3073 25.584C84.4993 25.3707 84.6486 25.2427 84.7553 25.2C84.8833 25.136 85.0753 25.104 85.3313 25.104H89.2993C89.5126 25.104 89.6833 25.168 89.8113 25.296C89.9606 25.4027 90.0246 25.5627 90.0033 25.776C89.9819 26.1387 89.8006 26.576 89.4593 27.088C89.1179 27.6 88.6166 28.112 87.9553 28.624C87.3153 29.1147 86.5046 29.52 85.5233 29.84C84.5419 30.16 83.4006 30.32 82.0993 30.32ZM79.3793 19.984H84.7873V19.92C84.7873 19.2373 84.6806 18.64 84.4673 18.128C84.2753 17.616 83.9659 17.2213 83.5393 16.944C83.1339 16.6667 82.6433 16.528 82.0673 16.528C81.4913 16.528 81.0006 16.6667 80.5953 16.944C80.2113 17.2213 79.9126 17.616 79.6993 18.128C79.4859 18.64 79.3793 19.2373 79.3793 19.92V19.984ZM99.6273 30.32C98.6033 30.32 97.6753 30.16 96.8433 29.84C96.0326 29.4987 95.3286 29.008 94.7313 28.368C94.1553 27.7067 93.7073 26.9173 93.3873 26C93.0673 25.0613 92.8859 23.9947 92.8433 22.8C92.8219 22.3733 92.8113 22 92.8113 21.68C92.8113 21.3387 92.8219 20.9653 92.8433 20.56C92.8859 19.408 93.0673 18.3733 93.3873 17.456C93.7073 16.5387 94.1553 15.7493 94.7313 15.088C95.3073 14.4267 96.0113 13.9253 96.8433 13.584C97.6753 13.2213 98.6033 13.04 99.6273 13.04C100.694 13.04 101.611 13.2213 102.379 13.584C103.147 13.9253 103.798 14.3733 104.331 14.928V8.08C104.331 7.84533 104.406 7.65333 104.555 7.504C104.705 7.35467 104.897 7.28 105.131 7.28H109.035C109.249 7.28 109.43 7.35467 109.579 7.504C109.75 7.65333 109.835 7.84533 109.835 8.08V29.2C109.835 29.4347 109.75 29.6267 109.579 29.776C109.43 29.9253 109.249 30 109.035 30H105.419C105.185 30 104.993 29.9253 104.843 29.776C104.694 29.6267 104.619 29.4347 104.619 29.2V28.176C104.107 28.7947 103.446 29.3067 102.635 29.712C101.825 30.1173 100.822 30.32 99.6273 30.32ZM101.355 26.032C102.081 26.032 102.646 25.8827 103.051 25.584C103.478 25.264 103.787 24.8587 103.979 24.368C104.193 23.8773 104.31 23.344 104.331 22.768C104.353 22.3413 104.363 21.936 104.363 21.552C104.363 21.168 104.353 20.7733 104.331 20.368C104.31 19.8347 104.193 19.344 103.979 18.896C103.766 18.4267 103.446 18.0533 103.019 17.776C102.593 17.4773 102.038 17.328 101.355 17.328C100.651 17.328 100.086 17.4773 99.6593 17.776C99.2539 18.0747 98.9659 18.48 98.7953 18.992C98.6246 19.504 98.5179 20.0693 98.4753 20.688C98.4113 21.3493 98.4113 22.0107 98.4753 22.672C98.5179 23.2907 98.6246 23.856 98.7953 24.368C98.9659 24.88 99.2539 25.2853 99.6593 25.584C100.086 25.8827 100.651 26.032 101.355 26.032ZM116.711 36.08C116.519 36.08 116.359 36.016 116.231 35.888C116.103 35.76 116.039 35.6 116.039 35.408C116.039 35.3653 116.039 35.3013 116.039 35.216C116.06 35.152 116.092 35.0773 116.135 34.992L118.631 28.976L112.487 14.448C112.423 14.2987 112.391 14.1707 112.391 14.064C112.433 13.872 112.519 13.712 112.647 13.584C112.775 13.4347 112.935 13.36 113.127 13.36H116.775C117.052 13.36 117.255 13.4347 117.383 13.584C117.532 13.712 117.628 13.8613 117.671 14.032L121.351 23.344L125.095 14.032C125.18 13.8613 125.287 13.712 125.415 13.584C125.564 13.4347 125.777 13.36 126.055 13.36H129.639C129.831 13.36 129.991 13.4347 130.119 13.584C130.268 13.712 130.343 13.8613 130.343 14.032C130.343 14.1387 130.311 14.2773 130.247 14.448L121.191 35.408C121.127 35.5787 121.02 35.728 120.871 35.856C120.721 36.0053 120.508 36.08 120.231 36.08H116.711Z"
    fill="#414D55" />
</svg>